<?xml version="1.0" encoding="UTF-8"?>
<svg id="Capa_1" data-name="Capa 1" xmlns="http://www.w3.org/2000/svg" viewBox="0 0 1080 1080">
  <defs>
    <style>
      .cls-1 {
        fill: #e9faff;
        stroke-width: 0px;
      }
    </style>
  </defs>
  <path class="cls-1" d="m80.83,392.65h30.08v35.27h-10.4l-53.78,162.76H9.3l71.53-198.03Zm-25.78,119.53h91.63l9.57,27.31H45.48l9.57-27.31Zm46.16-84.26v-35.27h19.82l71.39,198.03h-37.43l-53.78-162.76Z"/>
  <path class="cls-1" d="m210.3,445.21h34.38v22.78h.83c3.79-7.87,9.45-14.14,16.98-18.8,7.53-4.67,16.84-7,27.93-7,16.17,0,28.67,4.85,37.5,14.55,8.82,9.7,13.24,22.97,13.24,39.8v94.14h-34.52v-87.28c0-10.34-2.45-18.32-7.35-23.95-4.9-5.63-12.25-8.44-22.04-8.44-6.56,0-12.29,1.49-17.19,4.46-4.9,2.97-8.69,7.09-11.37,12.35-2.68,5.26-4.02,11.41-4.02,18.46v84.4h-34.38v-145.47Z"/>
  <path class="cls-1" d="m389.19,583.68c-7.44-6.59-11.16-17.38-11.16-32.39v-79.73h-20.79v-26.35h20.79v-36.92h35.07v36.92h27.31v26.35h-27.31v76.99c0,7.05,1.59,11.92,4.78,14.62,3.19,2.7,7.88,4.05,14.07,4.05,1.75,0,3.3-.07,4.64-.21,1.34-.14,2.61-.25,3.81-.34v25.66c-2.03.27-4.5.55-7.42.82-2.91.28-6.17.41-9.77.41-15.25,0-26.59-3.29-34.03-9.88Z"/>
  <path class="cls-1" d="m620.2,445.21h34.52v145.47h-34.52v-145.47Z"/>
  <path class="cls-1" d="m708.43,587.93c-9.1-3.75-16.22-9.03-21.35-15.85-5.13-6.82-8.25-14.71-9.36-23.67l-.14-1.23h33.96l.28,1.23c1.29,6.31,4.37,11.21,9.22,14.68,4.85,3.48,11.67,5.21,20.45,5.21,5.64,0,10.44-.69,14.42-2.06,3.97-1.37,7.05-3.38,9.22-6.04,2.17-2.65,3.26-5.76,3.26-9.33v-.14c0-4.3-1.48-7.8-4.44-10.5-2.96-2.7-8.27-4.92-15.94-6.66l-24.4-5.35c-9.33-2.1-17.14-4.99-23.43-8.65-6.29-3.66-11-8.21-14.14-13.66-3.14-5.44-4.71-11.78-4.71-19.01v-.14c0-8.87,2.45-16.65,7.35-23.33,4.9-6.68,11.78-11.89,20.65-15.64,8.87-3.75,19.18-5.63,30.91-5.63s22.64,2.01,31.33,6.04c8.68,4.03,15.41,9.42,20.17,16.19,4.76,6.77,7.32,14.36,7.69,22.78l.14,1.51h-32.16l-.14-1.1c-.74-5.85-3.42-10.68-8.04-14.48-4.62-3.8-10.95-5.69-18.99-5.69-5.08,0-9.5.73-13.24,2.2-3.74,1.46-6.61,3.52-8.6,6.17-1.99,2.66-2.98,5.76-2.98,9.33v.14c0,2.74.69,5.22,2.08,7.41,1.39,2.19,3.6,4.1,6.65,5.69,3.05,1.6,7.12,3,12.2,4.19l24.4,5.35c15.25,3.39,26.11,8.21,32.58,14.48,6.47,6.27,9.7,14.66,9.7,25.18v.14c0,9.15-2.63,17.18-7.9,24.08-5.27,6.91-12.55,12.26-21.83,16.06s-19.94,5.69-31.95,5.69c-12.85,0-23.82-1.88-32.92-5.63Z"/>
  <path class="cls-1" d="m942.57,510.15c-6.22,27.93-37.9,44.65-70.76,37.33-32.86-7.32-54.45-35.9-48.23-63.83,10.63-47.72,83.17-93.02,83.17-93.02,0,0,46.45,71.81,35.82,119.53"/>
  <g>
    <path class="cls-1" d="m11.14,670.91v-40.23h17.2c7.47,0,12.24,5.69,12.24,12.84s-4.78,12.36-12.24,12.36h-12.61v15.03h-4.59Zm16.53-18.72c5.75,0,8.87-3.7,8.87-8.78s-3.12-8.91-8.87-8.91h-11.94v17.69h11.94Z"/>
    <path class="cls-1" d="m46.27,670.91v-29.81h4.04v7.03c2.14-6.18,6.73-7.81,10.9-7.81h1.65v4.36c-.61-.06-1.35-.12-2.2-.12-6.86,0-10.1,5.09-10.1,11.15v15.21h-4.28Z"/>
    <path class="cls-1" d="m92.97,662.13c-1.71,6.12-6.43,9.57-12.55,9.57-9.55,0-14.32-5.39-14.32-16.24,0-9.21,5.08-15.15,13.89-15.15s13.4,6.24,13.4,16.66h-23.01c.18,7.33,3.67,11.33,9.85,11.33,3.98,0,7.16-2.24,8.26-6.18h4.47Zm-3.98-7.94c-.12-6.48-3.67-10.42-9.12-10.42s-9.18,4-9.36,10.42h18.49Z"/>
    <path class="cls-1" d="m108.46,670.91l-12.06-29.81h4.83l9.61,24.3,9.43-24.3h4.59l-11.94,29.81h-4.47Z"/>
    <path class="cls-1" d="m154.91,662.13c-1.71,6.12-6.43,9.57-12.55,9.57-9.55,0-14.32-5.39-14.32-16.24,0-9.21,5.08-15.15,13.89-15.15s13.4,6.24,13.4,16.66h-23.01c.18,7.33,3.67,11.33,9.85,11.33,3.98,0,7.16-2.24,8.26-6.18h4.47Zm-3.98-7.94c-.12-6.48-3.67-10.42-9.12-10.42s-9.18,4-9.36,10.42h18.49Z"/>
    <path class="cls-1" d="m183.49,670.91v-18.66c0-6.6-2.82-8.3-7.83-8.3-7.47,0-9.55,5.82-9.55,13.15v13.81h-4.28v-29.81h4.1v7.45c1.71-5.88,6.37-8.24,11.32-8.24,6.18,0,10.53,2.85,10.53,10.66v19.93h-4.28Z"/>
    <path class="cls-1" d="m220.83,660.13c-.86,6.91-6.24,11.57-13.16,11.57-7.77,0-13.16-5.39-13.16-16.06s5.39-15.33,13.41-15.33c7.41,0,12.49,4.42,12.98,11.45h-4.35c-.49-5.03-3.92-7.88-8.69-7.88-5.26,0-9.06,3.33-9.06,11.69s3.8,12.54,8.88,12.54c4.59,0,8.26-3.03,8.81-8h4.35Z"/>
    <path class="cls-1" d="m227.06,637.53v-7.33h4.28v7.33h-4.28Zm0,33.38v-29.81h4.28v29.81h-4.28Z"/>
    <path class="cls-1" d="m238.14,656.01c0-9.45,5.69-15.69,14.75-15.69s14.51,6.18,14.51,15.69-5.63,15.69-14.51,15.69-14.75-6.42-14.75-15.69Zm24.97,0c0-7.57-3.73-12.06-10.22-12.06s-10.34,4.48-10.34,12.06,3.73,12.12,10.34,12.12,10.22-4.54,10.22-12.12Zm-14.38-18.66l-1.35-2.3,12.98-8.36,2.08,3.51-13.71,7.15Z"/>
    <path class="cls-1" d="m295.74,670.91v-18.66c0-6.6-2.82-8.3-7.83-8.3-7.47,0-9.55,5.82-9.55,13.15v13.81h-4.28v-29.81h4.1v7.45c1.71-5.88,6.37-8.24,11.32-8.24,6.18,0,10.53,2.85,10.53,10.66v19.93h-4.28Z"/>
    <path class="cls-1" d="m307.12,675.88c1.78-.48,2.69-2.06,2.75-4.97h-2.75v-6.24h4.78v4.97c0,4.54-1.16,7.15-4.78,8.06v-1.82Z"/>
    <path class="cls-1" d="m356.45,650.13c-.37-4.42-2.51-6.54-8.63-6.54-4.65,0-7.53,1.21-7.53,4.79,0,2.48,1.35,3.76,4.47,4.54,2.94.73,7.28.97,11.26,2.42,2.45.91,5.39,2.42,5.39,7.03,0,5.51-4.16,9.33-12.55,9.33s-13.65-4.06-13.77-10.36h4.41c.12,4.48,3.55,7.09,9.3,7.09,6.43,0,8.57-3.27,8.57-5.94,0-1.7-.86-2.73-2.69-3.58-3.18-1.51-6.73-1.51-10.96-2.73-5.81-1.64-7.59-4-7.59-7.45,0-5.27,4.04-8.42,12-8.42,8.88,0,12.18,3.88,12.43,9.82h-4.1Z"/>
    <path class="cls-1" d="m388.33,670.91c-.12-.36-.18-4.97-.24-5.45-1.41,3.57-5.82,6.24-11.2,6.24-7.22,0-10.22-3.33-10.22-8.3,0-7.63,5.14-8.97,13.04-9.82,5.08-.55,8.02-.97,8.26-2.79,0-4.54-2.33-7.15-8.02-7.15s-8.08,2.73-8.33,7.15h-4.04c.12-6.18,3.37-10.48,12.55-10.48s12.24,4.24,12.24,11.75v18.84h-4.04Zm-.24-16.18c-.92,1.15-3.86,1.21-8.33,1.76-5.81.73-8.81,1.82-8.81,6.48,0,3.51,2.02,5.57,6.86,5.57,5.08,0,9.92-3.21,10.22-8.48l.06-5.33Z"/>
    <path class="cls-1" d="m399.66,670.91v-40.71h4.28v40.71h-4.28Z"/>
    <path class="cls-1" d="m432.83,670.91v-7.33c-1.84,5.94-6.49,8.12-11.08,8.12-6.3,0-10.65-3.33-10.65-11.15v-19.45h4.28v17.03c0,7.39,2.2,10,7.77,10,7.53,0,9.49-6.48,9.49-13.09v-13.94h4.22v29.81h-4.04Z"/>
    <path class="cls-1" d="m467.1,670.91v-7.03c-1.78,5.94-6.37,7.82-10.53,7.82-7.59,0-13.04-5.64-13.04-15.87s4.96-15.51,12.67-15.51c4.22,0,8.87,2.18,10.83,8v-18.11h4.22v40.71h-4.16Zm.06-14.54c0-6.91-3.06-12.36-9.67-12.36-6,0-9.61,4-9.61,12.06s3.98,12.12,9.61,12.12,9.67-4.36,9.67-11.81Z"/>
    <path class="cls-1" d="m517.41,665.16c-.86,3.15-4.04,6.06-10.22,6.06-6.49,0-11.26-3.82-11.26-11.63v-18.48h4.28v17.93c0,6.18,3.12,8.72,7.96,8.72,6,0,9.24-2.97,9.24-8.78v-17.87h4.28v30.35c0,8.72-5.51,13.57-13.16,13.57-8.2,0-12.91-4.79-12.91-12.48h4.04c0,5.51,3.55,8.79,9.06,8.79,5.02,0,8.69-3.51,8.69-9.82v-6.36Z"/>
    <path class="cls-1" d="m546.23,670.91v-40.71h4.22v18.11c1.96-5.82,6.61-8,10.83-8,7.71,0,12.67,5.76,12.67,15.51,0,10.24-5.45,15.87-13.04,15.87-4.16,0-8.75-1.88-10.53-7.82v7.03h-4.16Zm23.38-14.84c0-8.06-3.61-12.06-9.61-12.06-6.61,0-9.67,5.45-9.67,12.36,0,7.45,4.22,11.81,9.67,11.81s9.61-4.36,9.61-12.12Z"/>
    <path class="cls-1" d="m580.87,637.53v-7.33h4.28v7.33h-4.28Zm0,33.38v-29.81h4.28v29.81h-4.28Z"/>
    <path class="cls-1" d="m618.82,662.13c-1.71,6.12-6.43,9.57-12.55,9.57-9.55,0-14.32-5.39-14.32-16.24,0-9.21,5.08-15.15,13.89-15.15s13.4,6.24,13.4,16.66h-23.01c.18,7.33,3.67,11.33,9.85,11.33,3.98,0,7.16-2.24,8.26-6.18h4.47Zm-3.98-7.94c-.12-6.48-3.67-10.42-9.12-10.42s-9.18,4-9.36,10.42h18.49Z"/>
    <path class="cls-1" d="m647.46,670.91v-18.66c0-6.6-2.82-8.3-7.83-8.3-7.47,0-9.55,5.82-9.55,13.15v13.81h-4.28v-29.81h4.1v7.45c1.71-5.88,6.37-8.24,11.32-8.24,6.18,0,10.53,2.85,10.53,10.66v19.93h-4.28Z"/>
    <path class="cls-1" d="m685.23,662.13c-1.71,6.12-6.43,9.57-12.55,9.57-9.55,0-14.32-5.39-14.32-16.24,0-9.21,5.08-15.15,13.89-15.15s13.4,6.24,13.4,16.66h-23.01c.18,7.33,3.67,11.33,9.85,11.33,3.98,0,7.16-2.24,8.26-6.18h4.47Zm-3.98-7.94c-.12-6.48-3.67-10.42-9.12-10.42s-9.18,4-9.36,10.42h18.49Z"/>
    <path class="cls-1" d="m712.46,650.13c-.37-4.42-2.51-6.54-8.63-6.54-4.65,0-7.53,1.21-7.53,4.79,0,2.48,1.35,3.76,4.47,4.54,2.94.73,7.28.97,11.26,2.42,2.45.91,5.39,2.42,5.39,7.03,0,5.51-4.16,9.33-12.55,9.33s-13.65-4.06-13.77-10.36h4.41c.12,4.48,3.55,7.09,9.3,7.09,6.43,0,8.57-3.27,8.57-5.94,0-1.7-.86-2.73-2.69-3.58-3.18-1.51-6.73-1.51-10.96-2.73-5.81-1.64-7.59-4-7.59-7.45,0-5.27,4.04-8.42,12-8.42,8.88,0,12.18,3.88,12.43,9.82h-4.1Z"/>
    <path class="cls-1" d="m742.33,651.28h3.98v8.48c0,6.3-3.49,11.94-11.57,11.94s-11.69-5.57-11.69-12v-26.66h4.22v8.06h19.04v3.09h-19.04v15.15c0,4.91,2.2,8.66,7.53,8.66s7.53-3.76,7.53-8.6v-8.12Z"/>
    <path class="cls-1" d="m774.21,670.91c-.12-.36-.18-4.97-.24-5.45-1.41,3.57-5.82,6.24-11.2,6.24-7.22,0-10.22-3.33-10.22-8.3,0-7.63,5.14-8.97,13.04-9.82,5.08-.55,8.02-.97,8.26-2.79,0-4.54-2.33-7.15-8.02-7.15s-8.08,2.73-8.33,7.15h-4.04c.12-6.18,3.37-10.48,12.55-10.48s12.24,4.24,12.24,11.75v18.84h-4.04Zm-.24-16.18c-.92,1.15-3.86,1.21-8.33,1.76-5.81.73-8.81,1.82-8.81,6.48,0,3.51,2.02,5.57,6.86,5.57,5.08,0,9.92-3.21,10.22-8.48l.06-5.33Z"/>
    <path class="cls-1" d="m785.54,670.91v-29.81h4.04v7.03c2.14-6.18,6.73-7.81,10.9-7.81h1.65v4.36c-.61-.06-1.35-.12-2.2-.12-6.86,0-10.1,5.09-10.1,11.15v15.21h-4.28Z"/>
  </g>
  <path class="cls-1" d="m573.12,343.93l63.81,74.17s273.44-173.36,357.3,22.73c73.1,170.93-151.93,352.91-151.93,352.91,0,0,137.55-57.04,197.56-169.95,34.95-65.77,40.58-133.27,14.96-200.23-28.86-75.41-88.17-127.12-157.55-135.69-128.33-15.85-260.32,90.75-260.32,90.75l-63.81-34.69Z"/>
  <g>
    <path class="cls-1" d="m578.31,531.99c-1.32.03-2.45-.73-2.97-1.91l-3.49-7.99-12.84,39.06c-.42,1.27-1.59,2.15-2.93,2.19-.03,0-.07,0-.1,0-1.3,0-2.48-.79-2.96-2.01l-30.41-76.34-26.45,61.02c-.49,1.12-1.58,1.87-2.8,1.92-1.23.05-2.37-.61-2.94-1.69l-23.44-44.35-11.93,20.34c.44,14.05,3.32,26.29,8.71,36.67,5.87,11.3,14.12,19.99,24.74,26.07,10.63,6.09,23.15,9.12,37.57,9.12s26.94-3.02,37.57-9.06c10.63-6.04,18.87-14.71,24.74-26.01,4.15-7.99,6.8-17.12,8.02-27.33l-18.1.27Z"/>
    <path class="cls-1" d="m464.38,493.74c.58-1,1.67-1.61,2.82-1.57,1.16.03,2.21.67,2.75,1.7l23.01,43.54,26.86-61.96c.51-1.18,1.63-1.96,2.97-1.92,1.29.02,2.44.81,2.91,2.01l30,75.3,12.71-38.65c.41-1.26,1.56-2.13,2.88-2.19,1.32-.06,2.54.7,3.07,1.91l5.98,13.69,16.65-.25c.13-2.24.21-4.5.21-6.84v-.28c0-15.64-2.96-29.09-8.87-40.35-5.92-11.25-14.21-19.92-24.88-26.01-10.67-6.08-23.17-9.13-37.5-9.13s-26.66,3.04-37.29,9.13c-10.63,6.09-18.9,14.78-24.81,26.07-4.73,9.03-7.53,19.44-8.48,31.18l9.02-15.39Z"/>
  </g>
  <path class="cls-1" d="m851.54,571.93v.24c0,2.63-.48,5.1-1.45,7.41-.97,2.31-2.31,4.32-4.03,6.04-1.72,1.72-3.73,3.07-6.03,4.03-2.3.97-4.76,1.45-7.39,1.45h-.24c-2.66,0-5.13-.48-7.43-1.45-2.3-.97-4.31-2.31-6.04-4.03-1.73-1.72-3.08-3.74-4.03-6.04-.96-2.31-1.44-4.78-1.44-7.41v-.24c0-2.66.48-5.13,1.44-7.41.96-2.28,2.3-4.29,4.03-6.03,1.73-1.73,3.75-3.08,6.04-4.03,2.3-.96,4.77-1.44,7.43-1.44h.24c2.63,0,5.1.48,7.39,1.44,2.3.96,4.3,2.3,6.03,4.03,1.72,1.73,3.07,3.74,4.03,6.03.97,2.29,1.45,4.76,1.45,7.41m-4.49,0c0-2.7-.64-5.14-1.92-7.33-1.28-2.18-3.01-3.92-5.18-5.2-2.17-1.28-4.61-1.92-7.31-1.92h-.24c-2.7,0-5.15.64-7.34,1.92-2.19,1.28-3.93,3.02-5.22,5.2-1.28,2.18-1.92,4.63-1.92,7.33v.24c0,2.7.64,5.14,1.92,7.33,1.28,2.18,3.02,3.92,5.22,5.2,2.2,1.28,4.64,1.92,7.34,1.92h.24c2.7,0,5.14-.64,7.31-1.92,2.17-1.28,3.9-3.02,5.18-5.2,1.28-2.18,1.92-4.63,1.92-7.33v-.24Zm-22.49,9.72v-19.21h8.78c2.48,0,4.38.56,5.72,1.69,1.34,1.13,2.01,2.77,2.01,4.93v.03c0,1.17-.31,2.26-.94,3.26-.63,1-1.46,1.73-2.5,2.18l4.02,7.12h-5.91l-3.41-6.28h-2.5v6.28h-5.27Zm5.27-10.3h2.94c.9,0,1.62-.22,2.14-.66.53-.44.79-1,.79-1.67s-.27-1.26-.81-1.69c-.54-.43-1.26-.64-2.16-.64h-2.9v4.66Z"/>
</svg>